<svg id="Layer_1" data-name="Layer 1" xmlns="http://www.w3.org/2000/svg" viewBox="0 0 1756 569"><defs><style>.cls-1{fill:#264d7f;}.cls-2{fill:#ef7430;}</style></defs><path class="cls-1" d="M1155.88,277.26a59.38,59.38,0,0,0-14.82-7.73,40,40,0,0,0,16.6-13.31q8.73-12.14,8.74-29.92,0-16-7.56-27.4t-22.37-17.48q-14.81-6.07-36.14-6.07h-91.54V382.72h94.51a108.13,108.13,0,0,0,29.77-3.85A67.17,67.17,0,0,0,1156.62,367,52.88,52.88,0,0,0,1172,347.31q5.33-11.69,5.33-27.39a50.79,50.79,0,0,0-21.48-42.66Zm-99.69-59.85h35.26q13,0,19.55,5.48t6.52,15A20.85,20.85,0,0,1,1114.7,249a18.37,18.37,0,0,1-8.3,7.1,31.34,31.34,0,0,1-13.18,2.52h-37Zm68.43,112.73a20.64,20.64,0,0,1-9,7.85,33.55,33.55,0,0,1-14.07,2.66h-45.33V296.21H1100a39.61,39.61,0,0,1,14.82,2.52,21.28,21.28,0,0,1,9.62,7.26,19.28,19.28,0,0,1,3.41,11.55A23.16,23.16,0,0,1,1124.62,330.14Zm631-11.71q0,21.63-10.52,36.59t-28.74,22.81q-18.21,7.85-41.91,7.85a129.31,129.31,0,0,1-36.89-4.89,94.5,94.5,0,0,1-29.18-14.22,117.28,117.28,0,0,1-22.81-22.07l30.52-34.66q14.81,19.86,29.77,26.66a73.78,73.78,0,0,0,31,6.82,47.49,47.49,0,0,0,14.51-2.08,22.06,22.06,0,0,0,10.08-6.07,14.44,14.44,0,0,0,3.55-9.93,14.77,14.77,0,0,0-2.22-8,21.24,21.24,0,0,0-6.08-6.22,49.07,49.07,0,0,0-9.18-4.89,91.89,91.89,0,0,0-11.26-3.85q-5.92-1.64-12.14-2.82a160.7,160.7,0,0,1-29.92-9.48A72,72,0,0,1,1613,276.22a52.58,52.58,0,0,1-12.59-18.67,63.74,63.74,0,0,1-4.14-23.55,52.67,52.67,0,0,1,6.37-25.62,64.4,64.4,0,0,1,17.18-20.15,80.35,80.35,0,0,1,25-13,95.87,95.87,0,0,1,29.63-4.59q20.43,0,35.1,4.29a74.36,74.36,0,0,1,43.1,31.55l-31.1,29.92a65.69,65.69,0,0,0-13.48-12.74,59.55,59.55,0,0,0-15.4-7.7,53.8,53.8,0,0,0-16.75-2.67,46.46,46.46,0,0,0-15.25,2.23,23.06,23.06,0,0,0-9.92,6.22,14,14,0,0,0-3.56,9.63,13,13,0,0,0,3,8.59,28.19,28.19,0,0,0,8,6.37A56.68,56.68,0,0,0,1669.7,251a115.5,115.5,0,0,0,13.63,3.11,165.17,165.17,0,0,1,29.48,8.59,90.65,90.65,0,0,1,22.81,13A53.39,53.39,0,0,1,1750.43,294Q1755.62,304.52,1755.62,318.43Zm-437-93h53.92l-66.95,157.31-27.26,68.13h-47.1l30.78-72.48-70.18-153h53.62l33.18,79.1c1.78,3.95,3.45,8.2,5,12.74.53,1.54,1,3,1.45,4.54,1.37-4.1,2.85-8.46,4.47-13.14Zm124.42,28.14a68.16,68.16,0,0,0-4.44,25.19,66.08,66.08,0,0,0,4.44,24.73,56,56,0,0,0,12.45,19.11,52.29,52.29,0,0,0,19.4,12.15,73.75,73.75,0,0,0,25.33,4.14,60.54,60.54,0,0,0,18.07-2.66,66.88,66.88,0,0,0,28.73-17.78l24.3,38.51q-7.41,8.3-19.7,14.81A119,119,0,0,1,1524.4,382a125.15,125.15,0,0,1-30.07,3.7,115.46,115.46,0,0,1-43.1-7.85A101.33,101.33,0,0,1,1417,355.61a98.77,98.77,0,0,1-22.36-34.07q-7.86-19.69-7.85-43.4a108.14,108.14,0,0,1,8.29-42.66,102.73,102.73,0,0,1,57.62-56.28,116.63,116.63,0,0,1,43.7-8,110.89,110.89,0,0,1,29,3.85A100.44,100.44,0,0,1,1552,186.46a88.76,88.76,0,0,1,21.18,17.92l-30.8,35.25a88.67,88.67,0,0,0-13.19-11.4,56.57,56.57,0,0,0-15.25-7.56,57.71,57.71,0,0,0-17.78-2.66,58.65,58.65,0,0,0-22.37,4.29,54.41,54.41,0,0,0-30.66,31.25Z"/><path class="cls-2" d="M614.54,178l271-68.58L758.38,393.78l-318.79,80L563.24,191Z"/><path class="cls-1" d="M277.05,236.72l322.28-81.56L614.54,178l-51.3,13L439.59,473.78Zm580.41,23.44-15.87,35.5A178.31,178.31,0,0,1,854,361.2c0,98-79.74,177.74-177.74,177.74-49.36,0-175.95.26-293.12.51-100.95.21-194.91.41-226.47.41a127.08,127.08,0,1,1,23.14-252L197.09,291l.21-17.55c1.09-89.77,75-162.8,164.82-162.8a164.54,164.54,0,0,1,50.07,7.75l12.09,3.85,5.66-11.37a145.69,145.69,0,0,1,131.17-81.3c61.42,0,114.41,38.44,136,92.51l28.92-7.32C701,47.91,636.3,0,561.11,0a175,175,0,0,0-151.8,86.85,194.63,194.63,0,0,0-47.19-5.78c-100.35,0-183.91,77.32-193.51,175.51q-6-.48-11.93-.47C70.29,256.11,0,326.39,0,412.79S70.29,569.46,156.68,569.46c31.57,0,125.56-.2,226.53-.41,117.15-.24,243.71-.51,293.06-.51,114.33,0,207.34-93,207.34-207.34A207.38,207.38,0,0,0,857.46,260.16Z"/></svg>